<svg width="568" height="568" viewBox="0 0 568 568" fill="none" xmlns="http://www.w3.org/2000/svg">
<circle cx="284" cy="284" r="284" fill="#EFEFEF"/>
<path d="M223.342 139H345.492C392.025 139 429.833 176.808 429.833 223.342V345.492C429.833 367.86 420.947 389.313 405.13 405.13C389.313 420.947 367.86 429.833 345.492 429.833H223.342C176.808 429.833 139 392.025 139 345.492V223.342C139 200.973 147.886 179.52 163.703 163.703C179.52 147.886 200.973 139 223.342 139ZM220.433 168.083C206.549 168.083 193.234 173.599 183.416 183.416C173.599 193.234 168.083 206.549 168.083 220.433V348.4C168.083 377.338 191.495 400.75 220.433 400.75H348.4C362.284 400.75 375.6 395.235 385.417 385.417C395.235 375.6 400.75 362.284 400.75 348.4V220.433C400.75 191.495 377.338 168.083 348.4 168.083H220.433ZM360.76 189.896C365.581 189.896 370.205 191.811 373.614 195.22C377.022 198.629 378.938 203.252 378.938 208.073C378.938 212.894 377.022 217.517 373.614 220.926C370.205 224.335 365.581 226.25 360.76 226.25C355.94 226.25 351.316 224.335 347.907 220.926C344.498 217.517 342.583 212.894 342.583 208.073C342.583 203.252 344.498 198.629 347.907 195.22C351.316 191.811 355.94 189.896 360.76 189.896ZM284.417 211.708C303.7 211.708 322.194 219.369 335.829 233.004C349.465 246.64 357.125 265.133 357.125 284.417C357.125 303.7 349.465 322.194 335.829 335.829C322.194 349.465 303.7 357.125 284.417 357.125C265.133 357.125 246.64 349.465 233.004 335.829C219.369 322.194 211.708 303.7 211.708 284.417C211.708 265.133 219.369 246.64 233.004 233.004C246.64 219.369 265.133 211.708 284.417 211.708ZM284.417 240.792C272.847 240.792 261.75 245.388 253.569 253.569C245.388 261.75 240.792 272.847 240.792 284.417C240.792 295.987 245.388 307.083 253.569 315.264C261.75 323.445 272.847 328.042 284.417 328.042C295.987 328.042 307.083 323.445 315.264 315.264C323.445 307.083 328.042 295.987 328.042 284.417C328.042 272.847 323.445 261.75 315.264 253.569C307.083 245.388 295.987 240.792 284.417 240.792Z" fill="black"/>
</svg>
