<svg width="14" height="14" viewBox="0 0 14 14" fill="none" xmlns="http://www.w3.org/2000/svg">
<path d="M10.3043 13.746C7.58098 13.7425 4.97017 12.6544 3.04446 10.7204C1.11875 8.78645 0.0353293 6.16444 0.0317993 3.42938C0.0317993 2.6121 0.355079 1.82828 0.930519 1.25037C1.50596 0.672461 2.28642 0.347794 3.10022 0.347794C3.27255 0.346476 3.44458 0.362182 3.61385 0.394688C3.77748 0.419006 3.93835 0.459394 4.09412 0.515272C4.20368 0.553878 4.30131 0.620537 4.37736 0.708656C4.4534 0.796776 4.50523 0.903303 4.5277 1.0177L5.44156 5.03717C5.46619 5.14627 5.46323 5.25984 5.43293 5.36749C5.40264 5.47515 5.34598 5.57347 5.26813 5.65349C5.18141 5.74728 5.17474 5.75398 4.35427 6.18272C5.01131 7.6303 6.16411 8.7928 7.6028 9.45858C8.03638 8.62789 8.04305 8.62119 8.13643 8.53411C8.21611 8.45592 8.31401 8.39902 8.42121 8.36859C8.52841 8.33817 8.64148 8.33519 8.75012 8.35993L12.7524 9.27771C12.8627 9.3034 12.9646 9.35685 13.0486 9.43303C13.1327 9.50921 13.196 9.60561 13.2327 9.71315C13.289 9.87216 13.3314 10.0358 13.3594 10.2022C13.3863 10.3706 13.3997 10.5408 13.3994 10.7113C13.3871 11.5251 13.0548 12.301 12.4749 12.8695C11.895 13.4381 11.1147 13.7532 10.3043 13.746V13.746ZM3.10022 1.68762C2.64079 1.68938 2.20068 1.87345 1.87581 2.19972C1.55094 2.52598 1.36765 2.96798 1.3659 3.42938C1.36766 5.80964 2.30996 8.09189 3.98586 9.77499C5.66176 11.4581 7.93426 12.4044 10.3043 12.4062C10.7638 12.4044 11.2039 12.2204 11.5288 11.8941C11.8536 11.5678 12.0369 11.1258 12.0387 10.6644V10.4434L8.94356 9.72655L8.75012 10.095C8.44995 10.6778 8.22982 11.0999 7.6695 10.8721C6.56412 10.4747 5.56076 9.83509 4.73231 8.99961C3.90386 8.16413 3.27113 7.15381 2.8801 6.04204C2.63996 5.51951 3.09355 5.27834 3.66721 4.97688L4.03409 4.796L3.32035 1.68762H3.10022Z" fill="#969696"/>
</svg>
